<?xml version="1.0" standalone="no"?>
<!DOCTYPE svg PUBLIC "-//W3C//DTD SVG 20010904//EN"
 "http://www.w3.org/TR/2001/REC-SVG-20010904/DTD/svg10.dtd">
<svg version="1.0" xmlns="http://www.w3.org/2000/svg"
 width="64.000000pt" height="64.000000pt" viewBox="0 0 64.000000 64.000000"
 preserveAspectRatio="xMidYMid meet">

<g transform="translate(0.000000,64.000000) scale(0.100000,-0.100000)"
fill="#fff" stroke="none">
<path d="M337 583 c-11 -10 -8 -101 3 -108 6 -3 10 -15 10 -26 0 -22 4 -23 30
-9 13 7 21 7 25 0 3 -5 18 -10 33 -10 15 0 41 -9 57 -20 37 -25 45 -25 45 -2
0 10 5 23 11 29 5 5 9 32 7 59 -3 47 -4 49 -34 52 -22 2 -34 9 -37 23 -4 16
-14 19 -74 19 -38 0 -73 -3 -76 -7z m133 -22 c0 -6 -15 -11 -32 -13 -29 -3
-33 -7 -36 -35 -3 -34 -32 -69 -32 -39 0 9 -4 16 -10 16 -5 0 -10 18 -10 40
l0 40 60 0 c33 0 60 -4 60 -9z m0 -51 c0 -15 -7 -20 -25 -20 -18 0 -25 5 -25
20 0 15 7 20 25 20 18 0 25 -5 25 -20z m70 -20 c0 -22 -4 -40 -10 -40 -5 0
-10 -7 -10 -16 0 -14 -2 -14 -22 0 -12 9 -35 16 -50 16 -39 0 -35 18 5 22 27
2 33 8 35 31 3 21 9 27 28 27 21 0 24 -4 24 -40z"/>
<path d="M47 554 c-4 -4 -7 -29 -7 -56 0 -34 5 -50 15 -54 8 -4 15 -15 15 -25
0 -23 9 -24 40 -2 13 10 43 20 65 23 l40 5 0 55 0 55 -80 3 c-45 1 -84 0 -88
-4z m153 -54 c0 -39 -1 -40 -33 -40 -18 0 -43 -7 -55 -16 -20 -14 -22 -14 -22
0 0 9 -7 16 -15 16 -11 0 -15 11 -15 40 l0 40 70 0 70 0 0 -40z"/>
<path d="M80 500 c0 -5 5 -10 10 -10 6 0 10 5 10 10 0 6 -4 10 -10 10 -5 0
-10 -4 -10 -10z"/>
<path d="M120 500 c0 -5 5 -10 10 -10 6 0 10 5 10 10 0 6 -4 10 -10 10 -5 0
-10 -4 -10 -10z"/>
<path d="M160 500 c0 -5 5 -10 10 -10 6 0 10 5 10 10 0 6 -4 10 -10 10 -5 0
-10 -4 -10 -10z"/>
<path d="M290 385 c-15 -18 -10 -45 13 -59 34 -22 73 27 47 59 -16 19 -44 19
-60 0z m46 -16 c10 -17 -13 -36 -27 -22 -12 12 -4 33 11 33 5 0 12 -5 16 -11z"/>
<path d="M30 365 c-15 -18 -10 -45 13 -59 34 -22 73 27 47 59 -16 19 -44 19
-60 0z m46 -16 c10 -17 -13 -36 -27 -22 -12 12 -4 33 11 33 5 0 12 -5 16 -11z"/>
<path d="M550 365 c-15 -18 -10 -45 13 -59 34 -22 73 27 47 59 -16 19 -44 19
-60 0z m46 -16 c10 -17 -13 -36 -27 -22 -12 12 -4 33 11 33 5 0 12 -5 16 -11z"/>
<path d="M273 298 c-13 -6 -24 -23 -28 -44 -3 -20 -12 -34 -20 -34 -11 0 -13
8 -8 30 3 17 1 30 -4 30 -6 0 -13 -13 -16 -30 -7 -31 -27 -42 -27 -15 0 9 -9
15 -21 15 -12 0 -38 10 -59 21 -66 37 -72 27 -68 -111 l3 -120 295 0 295 0 0
122 c0 109 -2 123 -17 126 -10 2 -31 -6 -47 -17 -16 -12 -41 -21 -55 -21 -16
0 -26 -6 -26 -15 0 -27 -20 -16 -27 15 -3 17 -10 30 -15 30 -6 0 -8 -13 -4
-30 4 -22 2 -30 -9 -30 -8 0 -17 14 -20 34 -10 49 -67 70 -122 44z m83 -16
c15 -10 27 -62 14 -62 -5 0 -10 11 -10 25 0 23 -4 25 -40 25 -36 0 -40 -2 -40
-25 0 -14 -5 -25 -10 -25 -13 0 -1 52 14 62 6 4 22 8 36 8 14 0 30 -4 36 -8z
m-278 -28 c13 -9 35 -20 50 -25 l27 -9 -30 4 c-16 2 -38 7 -47 11 -15 6 -18 2
-18 -27 0 -27 6 -38 25 -48 26 -14 66 -105 42 -97 -6 2 -16 18 -21 35 -6 21
-18 34 -37 41 -28 9 -29 13 -29 70 0 34 3 61 8 61 4 0 18 -7 30 -16z m522 -37
c0 -52 -1 -53 -36 -66 -32 -12 -35 -15 -29 -44 l6 -32 -17 29 c-16 29 -16 30
12 53 16 13 32 23 37 23 4 0 7 14 7 31 0 26 -3 30 -17 24 -10 -4 -31 -10 -48
-12 -26 -3 -25 -2 9 11 21 8 43 19 49 25 21 21 27 11 27 -42z m-260 18 c0 -8
-9 -15 -20 -15 -11 0 -20 7 -20 15 0 8 9 15 20 15 11 0 20 -7 20 -15z m-214
-35 c10 0 14 -11 13 -37 -1 -21 -3 -31 -6 -22 -2 9 -15 22 -28 29 -28 15 -35
46 -9 36 9 -3 22 -6 30 -6z m434 2 c0 -4 -13 -16 -30 -25 -29 -18 -30 -18 -30
2 0 18 6 21 53 30 4 0 7 -3 7 -7z m-80 -12 c0 -6 -60 -10 -160 -10 -100 0
-160 4 -160 10 0 6 60 10 160 10 100 0 160 -4 160 -10z m-300 -80 c0 -27 -4
-50 -10 -50 -5 0 -10 23 -10 50 0 28 5 50 10 50 6 0 10 -22 10 -50z m86 32 c6
-10 15 -32 19 -50 l7 -32 -46 0 -46 0 0 50 c0 48 1 50 28 50 15 0 32 -8 38
-18z m87 6 c-6 -7 -13 -30 -17 -50 -4 -21 -11 -38 -16 -38 -5 0 -12 17 -16 38
-4 20 -11 43 -17 50 -7 9 0 12 33 12 33 0 40 -3 33 -12z m87 -38 l0 -50 -46 0
-46 0 7 32 c11 49 27 68 57 68 27 0 28 -2 28 -50z m40 0 c0 -27 -4 -50 -10
-50 -5 0 -10 23 -10 50 0 28 5 50 10 50 6 0 10 -22 10 -50z m110 -11 c0 -46
-19 -50 -31 -6 -5 20 -3 30 9 37 10 5 18 10 20 10 1 0 2 -18 2 -41z m-513 9
c6 -7 13 -21 16 -30 5 -14 1 -18 -18 -18 -21 0 -25 5 -25 30 0 32 11 39 27 18z
m437 -33 c3 -8 1 -15 -4 -15 -6 0 -10 7 -10 15 0 8 2 15 4 15 2 0 6 -7 10 -15z"/>
</g>
</svg>
