<?xml version="1.0" standalone="no"?>
<!DOCTYPE svg PUBLIC "-//W3C//DTD SVG 20010904//EN"
 "http://www.w3.org/TR/2001/REC-SVG-20010904/DTD/svg10.dtd">
<svg version="1.0" xmlns="http://www.w3.org/2000/svg"
 width="64.000000pt" height="64.000000pt" viewBox="0 0 64.000000 64.000000"
 preserveAspectRatio="xMidYMid meet">

<g transform="translate(0.000000,64.000000) scale(0.100000,-0.100000)"
fill="#fff" stroke="none">
<path d="M85 598 c-73 -62 -81 -82 -45 -118 17 -17 33 -20 114 -20 99 0 126
10 126 49 0 28 -56 80 -103 96 -55 19 -61 19 -92 -7z m70 -8 c3 -5 18 -10 32
-10 16 0 27 -7 30 -19 3 -11 14 -21 25 -24 14 -4 19 -12 16 -29 -3 -22 -7 -23
-97 -26 -99 -3 -124 6 -119 41 2 11 12 25 23 31 11 6 26 19 33 29 14 19 47 23
57 7z"/>
<path d="M424 607 c-3 -8 -4 -39 -2 -68 3 -53 4 -54 36 -57 17 -2 32 -7 32
-13 0 -5 -4 -9 -10 -9 -5 0 -10 -4 -10 -10 0 -5 23 -10 50 -10 28 0 50 5 50
10 0 6 -4 10 -10 10 -5 0 -10 4 -10 9 0 6 15 11 33 13 l32 3 0 65 0 65 -93 3
c-72 2 -94 0 -98 -11z m176 -37 l0 -30 -80 0 -80 0 0 30 0 30 80 0 80 0 0 -30z
m0 -60 c0 -6 -33 -10 -80 -10 -47 0 -80 4 -80 10 0 6 33 10 80 10 47 0 80 -4
80 -10z m-70 -40 c0 -5 -4 -10 -10 -10 -5 0 -10 5 -10 10 0 6 5 10 10 10 6 0
10 -4 10 -10z"/>
<path d="M110 390 l0 -50 45 0 c25 0 45 5 45 10 0 6 -16 10 -35 10 -34 0 -35
1 -35 40 0 22 -4 40 -10 40 -5 0 -10 -22 -10 -50z"/>
<path d="M220 300 l0 -130 100 0 100 0 0 130 0 130 -100 0 -100 0 0 -130z
m180 80 l0 -30 -80 0 -80 0 0 30 0 30 80 0 80 0 0 -30z m0 -80 l0 -30 -80 0
-80 0 0 30 0 30 80 0 80 0 0 -30z m0 -80 l0 -30 -80 0 -80 0 0 30 0 30 80 0
80 0 0 -30z"/>
<path d="M260 380 c0 -5 5 -10 10 -10 6 0 10 5 10 10 0 6 -4 10 -10 10 -5 0
-10 -4 -10 -10z"/>
<path d="M310 380 c0 -5 5 -10 10 -10 6 0 10 5 10 10 0 6 -4 10 -10 10 -5 0
-10 -4 -10 -10z"/>
<path d="M360 380 c0 -5 5 -10 10 -10 6 0 10 5 10 10 0 6 -4 10 -10 10 -5 0
-10 -4 -10 -10z"/>
<path d="M260 300 c0 -5 5 -10 10 -10 6 0 10 5 10 10 0 6 -4 10 -10 10 -5 0
-10 -4 -10 -10z"/>
<path d="M310 300 c0 -5 5 -10 10 -10 6 0 10 5 10 10 0 6 -4 10 -10 10 -5 0
-10 -4 -10 -10z"/>
<path d="M360 300 c0 -5 5 -10 10 -10 6 0 10 5 10 10 0 6 -4 10 -10 10 -5 0
-10 -4 -10 -10z"/>
<path d="M260 220 c0 -5 5 -10 10 -10 6 0 10 5 10 10 0 6 -4 10 -10 10 -5 0
-10 -4 -10 -10z"/>
<path d="M310 220 c0 -5 5 -10 10 -10 6 0 10 5 10 10 0 6 -4 10 -10 10 -5 0
-10 -4 -10 -10z"/>
<path d="M360 220 c0 -5 5 -10 10 -10 6 0 10 5 10 10 0 6 -4 10 -10 10 -5 0
-10 -4 -10 -10z"/>
<path d="M510 390 c0 -28 -3 -30 -35 -30 -19 0 -35 -4 -35 -10 0 -5 20 -10 45
-10 l45 0 0 40 c0 22 -4 40 -10 40 -5 0 -10 -13 -10 -30z"/>
<path d="M110 260 c0 -22 5 -40 10 -40 6 0 10 14 10 30 0 28 3 30 35 30 19 0
35 5 35 10 0 6 -20 10 -45 10 l-45 0 0 -40z"/>
<path d="M440 290 c0 -5 16 -10 35 -10 34 0 35 -1 35 -40 0 -22 5 -40 10 -40
6 0 10 23 10 50 l0 50 -45 0 c-25 0 -45 -4 -45 -10z"/>
<path d="M24 187 c-3 -8 -4 -47 -2 -88 l3 -74 85 0 85 0 3 63 c3 56 1 64 -17
69 -10 3 -21 13 -24 24 -4 16 -15 19 -66 19 -42 0 -63 -4 -67 -13z m116 -16
c0 -5 -9 -11 -20 -14 -17 -4 -20 -14 -20 -61 0 -56 0 -56 -30 -56 l-30 0 0 70
0 70 50 0 c28 0 50 -4 50 -9z m40 -81 c0 -49 -1 -50 -30 -50 -29 0 -30 1 -30
50 0 49 1 50 30 50 29 0 30 -1 30 -50z"/>
<path d="M437 173 c-3 -5 -7 -39 -8 -78 l-4 -70 95 0 95 0 -4 70 c-1 39 -5 73
-8 78 -2 4 -40 7 -83 7 -43 0 -81 -3 -83 -7z m153 -53 l0 -40 -70 0 -70 0 0
40 0 40 70 0 70 0 0 -40z m10 -70 c0 -6 -33 -10 -80 -10 -47 0 -80 4 -80 10 0
6 33 10 80 10 47 0 80 -4 80 -10z"/>
</g>
</svg>
