<?xml version="1.0" standalone="no"?>
<!DOCTYPE svg PUBLIC "-//W3C//DTD SVG 20010904//EN"
 "http://www.w3.org/TR/2001/REC-SVG-20010904/DTD/svg10.dtd">
<svg version="1.0" xmlns="http://www.w3.org/2000/svg"
 width="64.000000pt" height="64.000000pt" viewBox="0 0 64.000000 64.000000"
 preserveAspectRatio="xMidYMid meet">

<g transform="translate(0.000000,64.000000) scale(0.100000,-0.100000)"
fill="#fff" stroke="none">
<path d="M213 577 c-53 -35 -93 -69 -93 -78 0 -20 25 -43 39 -35 5 4 12 -4 14
-16 4 -20 4 -19 6 4 1 23 14 37 71 74 l70 47 70 -47 70 -46 0 -65 c0 -57 -2
-65 -19 -65 -10 0 -21 -7 -25 -15 -8 -23 4 -45 26 -45 15 0 19 -6 16 -27 -4
-33 -24 -41 -31 -13 -3 11 -11 20 -19 20 -27 0 -51 91 -28 105 6 3 10 17 10
31 0 23 -2 24 -70 24 -68 0 -70 -1 -70 -24 0 -14 5 -28 10 -31 23 -14 -1 -105
-28 -105 -8 0 -16 -9 -19 -20 -7 -28 -27 -20 -31 13 -3 21 1 27 16 27 22 0 34
22 26 45 -4 8 -14 15 -24 15 -14 0 -20 9 -23 33 -2 17 -4 -13 -3 -68 l1 -100
58 -3 c41 -2 57 -7 57 -17 0 -11 -23 -15 -112 -17 l-113 -3 -3 -36 c-2 -27 -9
-38 -23 -42 -14 -4 -19 -14 -19 -39 0 -52 10 -59 76 -56 l59 3 3 43 c3 37 0
44 -17 49 -27 7 -27 23 -1 23 11 0 20 5 20 10 0 6 -12 10 -26 10 -17 0 -28 -6
-31 -20 -9 -32 -25 -23 -21 13 l3 32 113 3 c104 2 112 4 112 22 0 11 5 20 10
20 6 0 10 -9 10 -20 0 -18 8 -20 113 -22 l112 -3 3 -32 c4 -36 -12 -45 -21
-13 -5 18 -14 20 -102 20 -88 0 -97 -2 -102 -20 -7 -26 -19 -26 -26 0 -4 17
-14 20 -61 20 -31 0 -56 -4 -56 -10 0 -5 23 -10 50 -10 51 0 67 -13 29 -23
-17 -5 -20 -12 -17 -49 l3 -43 65 0 65 0 3 43 c3 37 0 44 -17 49 -47 12 -16
23 64 23 80 0 111 -11 64 -23 -17 -5 -20 -12 -17 -49 l3 -43 59 -3 c66 -3 76
4 76 56 0 25 -5 35 -19 39 -14 4 -21 15 -23 42 l-3 36 -112 3 c-90 2 -113 6
-113 17 0 10 16 15 58 17 l57 3 3 128 c2 83 6 126 13 122 13 -9 39 14 39 34 0
17 -180 142 -202 140 -7 0 -55 -28 -105 -62z m199 -14 c48 -32 88 -61 88 -65
0 -17 -24 -6 -95 42 -41 28 -79 50 -85 50 -6 0 -44 -22 -85 -50 -71 -48 -95
-59 -95 -42 0 6 169 122 179 122 3 0 44 -26 93 -57z m-42 -163 c0 -5 -22 -10
-50 -10 -27 0 -50 5 -50 10 0 6 23 10 50 10 28 0 50 -4 50 -10z m-60 -60 c0
-16 -4 -30 -10 -30 -5 0 -10 14 -10 30 0 17 5 30 10 30 6 0 10 -13 10 -30z
m40 0 c0 -16 -4 -30 -10 -30 -5 0 -10 14 -10 30 0 17 5 30 10 30 6 0 10 -13
10 -30z m-140 -20 c0 -5 -7 -10 -15 -10 -8 0 -15 5 -15 10 0 6 7 10 15 10 8 0
15 -4 15 -10z m250 0 c0 -5 -7 -10 -15 -10 -8 0 -15 5 -15 10 0 6 7 10 15 10
8 0 15 -4 15 -10z m-90 -40 c0 -5 -22 -10 -50 -10 -27 0 -50 5 -50 10 0 6 23
10 50 10 28 0 50 -4 50 -10z m40 -40 c0 -6 -37 -10 -90 -10 -53 0 -90 4 -90
10 0 6 37 10 90 10 53 0 90 -4 90 -10z m-270 -190 c0 -29 -1 -30 -50 -30 -49
0 -50 1 -50 30 0 29 1 30 50 30 49 0 50 -1 50 -30z m230 0 c0 -29 -1 -30 -50
-30 -49 0 -50 1 -50 30 0 29 1 30 50 30 49 0 50 -1 50 -30z m230 0 c0 -29 -1
-30 -50 -30 -49 0 -50 1 -50 30 0 29 1 30 50 30 49 0 50 -1 50 -30z"/>
<path d="M294 495 c-4 -9 -2 -21 4 -27 16 -16 47 -5 47 17 0 26 -42 34 -51 10z
m36 -5 c0 -5 -4 -10 -10 -10 -5 0 -10 5 -10 10 0 6 5 10 10 10 6 0 10 -4 10
-10z"/>
</g>
</svg>
