<?xml version="1.0" standalone="no"?>
<!DOCTYPE svg PUBLIC "-//W3C//DTD SVG 20010904//EN"
 "http://www.w3.org/TR/2001/REC-SVG-20010904/DTD/svg10.dtd">
<svg version="1.0" xmlns="http://www.w3.org/2000/svg"
 width="640.000000pt" height="640.000000pt" viewBox="0 0 640.000000 640.000000"
 preserveAspectRatio="xMidYMid meet">

<g transform="translate(0.000000,640.000000) scale(0.100000,-0.100000)"
fill="#fff" stroke="none">
<path d="M2908 6165 c-3 -14 -1 -26 3 -26 5 -1 15 -2 22 -3 9 -1 13 -45 17
-171 l5 -170 25 0 25 0 5 170 c5 162 6 170 25 170 15 0 20 7 20 25 0 24 -3 25
-71 28 -70 3 -72 2 -76 -23z"/>
<path d="M3103 6175 c-25 -18 -37 -63 -28 -105 4 -17 29 -59 56 -93 42 -51 49
-67 47 -97 -2 -27 -7 -35 -23 -35 -16 0 -21 8 -25 40 -4 35 -9 40 -32 43 -27
3 -28 2 -28 -43 0 -61 32 -95 89 -95 53 0 81 34 81 99 0 50 -10 68 -72 140
-30 35 -38 52 -36 75 4 43 41 44 48 1 4 -24 10 -30 30 -30 23 0 25 4 24 39 -3
66 -75 100 -131 61z"/>
<path d="M3269 6143 c-1 -27 -1 -70 -1 -98 0 -27 1 -85 1 -128 1 -69 4 -81 26
-102 33 -34 83 -34 116 1 23 25 24 29 24 197 l0 172 -25 0 -25 0 -3 -167 c-2
-145 -5 -167 -19 -173 -35 -13 -43 21 -43 187 l0 158 -25 0 c-23 0 -25 -4 -26
-47z"/>
<path d="M3464 6176 c-3 -8 -4 -97 -2 -198 l3 -183 54 -3 c69 -4 80 0 74 32
-5 22 -11 26 -39 26 l-34 0 0 170 0 170 -25 0 c-14 0 -28 -6 -31 -14z"/>
<path d="M3790 5918 c-25 -5 -55 -7 -67 -5 -23 4 -32 -16 -13 -28 6 -3 10 -16
10 -27 0 -34 46 -103 87 -129 43 -28 73 -42 73 -32 0 7 -51 96 -59 103 -38 33
-26 37 28 10 34 -17 64 -39 67 -48 10 -31 38 -77 59 -95 25 -22 105 -61 112
-54 8 8 -17 47 -58 92 l-40 43 55 -20 c45 -17 59 -28 84 -68 35 -57 93 -98
148 -107 l39 -6 -26 34 c-14 19 -46 49 -70 68 -24 19 -37 31 -29 28 8 -3 41
-13 73 -23 50 -14 61 -22 77 -55 24 -46 83 -96 129 -109 19 -5 37 -8 39 -6 8
9 -18 44 -63 85 l-47 43 34 -7 c59 -13 75 -23 104 -64 34 -48 108 -91 155 -91
l34 0 -52 51 c-29 28 -53 52 -53 53 0 12 81 -22 85 -35 9 -28 71 -77 112 -88
45 -13 93 -14 93 -3 0 11 -38 42 -85 69 -48 27 -38 28 57 7 81 -19 124 -14
174 17 51 31 31 43 -63 35 -43 -4 -106 -9 -141 -12 l-63 -6 45 46 c55 55 59
70 14 61 -48 -10 -93 -33 -119 -61 -26 -27 -29 -28 -83 -13 l-39 11 33 20 c39
23 71 60 62 70 -13 13 -93 -10 -142 -40 -47 -29 -50 -30 -97 -18 l-48 13 35
12 c45 15 84 47 74 62 -11 18 -111 2 -159 -25 -39 -21 -43 -22 -93 -8 -52 14
-70 32 -33 32 22 0 81 46 81 62 0 18 -112 2 -158 -21 -42 -21 -43 -21 -92 -4
-52 18 -65 33 -30 33 21 0 90 40 90 52 0 4 -19 10 -43 13 -31 5 -60 1 -105
-14 -62 -21 -63 -21 -106 -2 -59 26 -63 37 -17 45 21 3 49 14 62 25 l24 19
-40 7 c-22 3 -47 7 -55 9 -8 1 -35 -2 -60 -6z"/>
<path d="M2570 5910 c-13 -8 -12 -11 5 -24 11 -9 37 -19 58 -22 20 -4 37 -10
37 -14 0 -3 -21 -17 -48 -29 -41 -19 -52 -21 -77 -10 -54 21 -99 28 -137 22
-21 -3 -38 -10 -38 -14 0 -15 63 -49 90 -49 30 0 18 -11 -37 -34 -42 -18 -43
-18 -90 4 -44 21 -163 41 -163 27 0 -14 53 -57 75 -63 37 -9 30 -20 -21 -34
-38 -11 -53 -11 -78 -1 -75 30 -123 42 -155 36 l-33 -6 23 -25 c12 -13 41 -30
62 -36 l40 -12 -52 -12 c-52 -11 -54 -11 -103 22 -27 19 -56 34 -63 34 -7 0
-27 3 -44 6 -24 5 -31 3 -31 -9 0 -19 65 -77 88 -77 29 -1 -7 -16 -54 -24 -35
-5 -44 -2 -65 20 -24 26 -98 64 -125 64 -26 0 -15 -27 29 -70 l42 -43 -70 7
c-191 18 -225 19 -225 3 0 -23 69 -51 125 -51 28 1 74 7 104 13 61 14 73 11
33 -10 -15 -8 -43 -29 -62 -46 l-35 -33 30 0 c62 0 109 21 158 72 36 36 58 51
85 55 l37 5 -25 -17 c-37 -27 -80 -68 -80 -77 0 -4 15 -8 33 -8 44 0 120 49
151 98 19 30 33 41 61 46 20 4 44 10 53 13 9 4 -10 -19 -41 -50 -64 -64 -71
-83 -29 -72 58 14 107 50 137 100 27 47 34 52 100 72 l70 22 -30 -22 c-39 -29
-95 -86 -95 -98 0 -15 39 -10 79 10 41 21 95 78 105 109 4 11 29 29 59 42 80
33 84 34 51 3 -40 -37 -88 -102 -81 -109 10 -10 67 14 107 46 23 18 45 48 55
73 13 34 26 47 67 69 57 31 71 29 41 -5 -11 -12 -29 -39 -41 -59 -20 -36 -20
-38 -3 -38 43 0 141 97 141 140 0 8 7 28 15 44 16 30 12 47 -6 29 -7 -7 -22
-8 -42 -2 -42 12 -148 11 -167 -1z"/>
<path d="M3090 5643 c-136 -54 -451 -157 -625 -206 -188 -52 -338 -88 -719
-167 -153 -32 -283 -63 -288 -68 -28 -28 -32 -505 -7 -882 14 -225 14 -224 62
-248 23 -12 186 -91 362 -178 176 -86 444 -217 595 -291 151 -74 293 -143 316
-153 l41 -18 6 -353 c4 -195 7 -567 7 -827 l0 -472 -27 17 c-132 85 -337 282
-450 433 -173 231 -310 497 -410 794 -43 129 -107 396 -119 498 l-6 54 -156
95 c-86 52 -160 96 -165 98 -11 4 -8 -16 44 -304 198 -1098 518 -1615 1324
-2137 145 -94 300 -188 309 -188 3 0 5 563 4 1251 l-3 1250 -195 100 c-173 89
-935 477 -1175 598 l-90 46 -3 243 c-2 189 0 243 10 246 7 2 81 13 163 25 242
35 536 104 798 187 60 19 112 34 118 34 6 0 7 -173 2 -465 l-6 -465 114 -53
c229 -108 251 -118 255 -114 2 2 3 375 2 828 l-3 825 -85 -33z"/>
<path d="M3296 3409 c4 -1245 8 -2265 9 -2267 5 -5 251 122 343 177 530 317
892 803 1117 1499 69 215 119 423 103 434 -7 4 -75 40 -150 79 -120 61 -159
89 -130 89 24 1 236 213 294 295 142 200 194 375 205 687 6 159 3 198 -28 473
-15 133 -48 328 -57 337 -5 5 -179 44 -388 88 -613 130 -876 200 -1159 311
-71 28 -138 53 -148 56 -17 5 -18 -82 -11 -2258z m527 1715 c287 -77 654 -149
877 -171 l75 -8 7 -40 c20 -120 30 -368 19 -500 -26 -314 -100 -496 -270 -665
-66 -66 -191 -159 -236 -176 -8 -3 -125 51 -260 120 -135 69 -248 126 -250
126 -3 0 -4 -88 -3 -195 l3 -195 345 -169 c326 -160 345 -171 348 -198 7 -65
-109 -407 -199 -585 -162 -323 -420 -626 -616 -727 -23 -11 -47 -21 -53 -21
-7 0 -10 541 -10 1735 l0 1735 26 -10 c14 -6 103 -31 197 -56z"/>
<path d="M721 988 c-19 -12 -43 -39 -53 -58 -39 -70 -11 -214 55 -282 52 -54
128 -153 133 -174 8 -31 -1 -91 -17 -110 -17 -21 -56 -17 -73 8 -11 15 -16 45
-16 86 l0 63 -47 -3 -48 -3 -3 -68 c-2 -50 2 -78 17 -111 50 -113 222 -113
276 0 14 29 16 56 13 125 -5 103 -14 120 -142 259 -52 57 -66 82 -66 122 0 44
21 68 60 68 36 0 43 -12 50 -74 5 -49 5 -50 40 -49 19 0 41 1 48 2 33 3 3 146
-39 187 -24 23 -40 29 -92 32 -52 3 -67 0 -96 -20z"/>
<path d="M2555 998 c-3 -7 -4 -177 -3 -378 l3 -365 55 0 55 0 0 375 0 375 -53
3 c-36 2 -54 -1 -57 -10z"/>
<path d="M2060 955 l0 -45 50 0 50 0 0 45 0 45 -50 0 -50 0 0 -45z"/>
<path d="M2712 958 l3 -43 50 0 50 0 3 43 3 42 -56 0 -56 0 3 -42z"/>
<path d="M3697 993 c-3 -5 -3 -41 -2 -80 2 -40 1 -73 -3 -73 -3 0 -16 10 -30
23 -34 32 -106 31 -133 -1 -35 -44 -41 -96 -37 -316 4 -228 9 -250 58 -279 42
-25 77 -21 111 12 29 29 31 29 33 1 1 -11 15 -16 54 -18 l52 -3 0 370 0 371
-49 0 c-28 0 -52 -3 -54 -7z m-10 -233 c4 -16 6 -111 3 -211 -5 -198 -9 -209
-63 -195 l-27 6 0 199 c0 110 3 206 6 215 4 10 18 16 40 16 29 0 35 -4 41 -30z"/>
<path d="M3972 633 l3 -368 95 -3 c113 -4 163 10 193 52 20 28 22 43 22 155
l0 123 -33 28 -33 28 25 25 c25 25 26 32 26 132 0 172 -23 195 -195 195 l-105
0 2 -367z m186 255 c7 -7 12 -43 12 -89 0 -87 -12 -109 -61 -109 l-29 0 0 105
0 105 33 0 c18 0 38 -5 45 -12z m9 -309 c16 -14 18 -170 3 -200 -8 -14 -21
-19 -50 -19 l-40 0 0 113 c0 63 3 117 7 121 10 10 62 -1 80 -15z"/>
<path d="M5590 630 l0 -370 50 0 50 0 0 239 c0 132 4 251 10 265 12 33 64 37
80 7 6 -12 10 -115 10 -265 l0 -246 50 0 50 0 0 269 c0 170 -4 280 -11 300
-23 65 -105 77 -161 24 l-28 -27 0 87 0 87 -50 0 -50 0 0 -370z"/>
<path d="M1165 878 c-11 -6 -28 -21 -37 -32 -17 -21 -17 -21 -18 7 0 26 -2 27
-50 27 l-50 0 0 -360 0 -360 50 0 50 0 0 77 0 78 25 -27 c49 -53 112 -48 152
11 22 33 23 41 23 266 0 144 -4 244 -11 264 -18 51 -87 76 -134 49z m39 -104
c3 -9 6 -102 6 -208 0 -203 -3 -216 -46 -216 -50 0 -54 17 -54 216 0 109 4
193 10 205 13 24 75 27 84 3z"/>
<path d="M1463 884 c-29 -7 -73 -51 -89 -91 -18 -41 -20 -383 -3 -434 18 -54
66 -97 115 -105 113 -17 190 71 182 207 l-2 39 -48 0 -48 0 0 -47 c0 -67 -18
-98 -55 -98 -41 0 -55 32 -55 127 l0 77 103 3 102 3 -2 113 c-2 120 -15 161
-63 190 -23 14 -102 23 -137 16z m88 -110 c8 -10 14 -40 14 -72 l0 -56 -50 0
c-50 -1 -50 0 -53 34 -2 19 1 52 8 73 9 31 15 37 39 37 16 0 35 -7 42 -16z"/>
<path d="M1800 873 c-78 -41 -94 -106 -88 -354 2 -122 6 -150 24 -183 31 -61
65 -81 133 -81 98 0 137 46 148 175 l6 70 -52 0 -51 0 0 -59 c0 -64 -15 -91
-52 -91 -42 0 -47 24 -48 226 0 204 2 214 51 214 21 0 29 -7 38 -31 6 -18 11
-45 11 -60 0 -28 2 -29 51 -29 l52 0 -7 56 c-13 112 -45 150 -132 160 -36 4
-58 0 -84 -13z"/>
<path d="M2314 884 c-53 -12 -93 -88 -94 -176 l0 -38 50 0 49 0 -1 45 c-1 51
14 75 48 75 28 0 44 -26 44 -72 0 -44 -11 -56 -97 -107 -92 -53 -103 -73 -103
-189 0 -76 3 -94 23 -123 30 -45 76 -58 123 -36 18 9 34 21 34 27 0 5 5 10 10
10 6 0 10 -9 10 -20 0 -17 7 -20 50 -20 l50 0 0 261 c0 274 -4 302 -49 343
-17 16 -109 28 -147 20z m96 -403 c0 -104 -10 -131 -49 -131 -38 0 -51 23 -51
91 0 46 4 55 36 85 56 53 64 47 64 -45z"/>
<path d="M3244 884 c-36 -8 -86 -69 -95 -116 -12 -62 -11 -338 2 -397 25 -117
173 -160 254 -73 27 29 49 109 43 162 -3 34 -4 35 -50 38 l-48 3 -1 -53 c-1
-29 -1 -56 -1 -59 2 -15 -38 -40 -59 -37 -34 5 -49 43 -49 131 l0 77 106 0
107 0 -5 108 c-5 117 -22 169 -64 197 -26 17 -103 27 -140 19z m87 -110 c8
-10 14 -40 14 -72 l0 -56 -50 0 -50 0 1 57 c1 31 7 64 14 72 16 20 54 19 71
-1z"/>
<path d="M4633 876 c-41 -19 -66 -57 -73 -115 -9 -82 -5 -91 46 -91 l44 0 0
48 c0 52 12 72 45 72 32 0 45 -20 45 -70 0 -53 -9 -65 -85 -103 -57 -28 -89
-59 -104 -100 -14 -36 -14 -141 0 -190 21 -76 116 -99 167 -42 l22 26 0 -25
c0 -24 3 -26 50 -26 l50 0 0 265 c0 280 -2 297 -48 338 -27 25 -117 32 -159
13z m97 -506 c-16 -31 -68 -27 -80 6 -26 66 -7 133 47 167 l38 24 3 -88 c1
-50 -2 -98 -8 -109z"/>
<path d="M5054 881 c-12 -5 -28 -19 -36 -30 -16 -23 -28 -18 -28 11 0 15 -8
18 -50 18 l-50 0 0 -310 0 -310 50 0 50 0 0 239 c0 132 4 251 10 265 8 21 16
26 45 26 19 0 36 -1 37 -2 1 -2 5 -120 8 -263 l5 -260 50 0 50 0 3 249 c2 206
0 258 -13 297 -9 26 -22 53 -30 59 -19 15 -76 21 -101 11z"/>
<path d="M5329 874 c-23 -10 -44 -29 -60 -57 -23 -41 -24 -49 -24 -242 0 -180
2 -204 20 -239 27 -53 63 -78 122 -83 97 -9 149 48 160 176 l6 71 -52 0 -51 0
0 -59 c0 -63 -15 -91 -50 -91 -45 0 -50 20 -50 216 0 109 4 193 10 205 11 20
45 25 69 10 7 -5 16 -32 19 -60 l5 -51 50 0 50 0 -7 63 c-4 34 -15 76 -25 92
-33 59 -117 80 -192 49z"/>
<path d="M2060 570 l0 -310 50 0 50 0 0 310 0 310 -50 0 -50 0 0 -310z"/>
<path d="M2712 573 l3 -308 50 0 50 0 3 308 2 307 -55 0 -55 0 2 -307z"/>
<path d="M2870 835 l0 -45 65 0 c36 0 65 -3 65 -8 0 -12 -15 -58 -79 -242 -45
-129 -61 -188 -61 -227 l0 -54 123 3 122 3 3 43 3 42 -69 0 c-38 0 -71 2 -74
5 -3 3 28 103 69 221 47 139 73 232 73 260 l0 44 -120 0 -120 0 0 -45z"/>
<path d="M4332 573 l3 -308 50 0 50 0 5 232 c3 127 8 234 11 237 4 5 37 13 62
15 4 1 7 30 7 66 0 58 -2 65 -19 65 -11 0 -29 -12 -40 -26 l-21 -27 0 27 c0
25 -2 26 -55 26 l-55 0 2 -307z"/>
</g>
</svg>
