<svg width="165" height="214" viewBox="0 0 165 214" fill="none" xmlns="http://www.w3.org/2000/svg">
<path d="M68.8 5.7C69.6 6 70 8.3 70 12.1C70 15.4 70.4 18 71 18C71.6 18 72 15.4 72 12.1C72 8.3 72.4 6 73.3 5.7C73.9 5.4 72.9 5.2 71 5.2C69.1 5.2 68.1 5.4 68.8 5.7Z" fill="white"/>
<path d="M75 7C75 8.2 76 10.4 77.1 11.9C78.4 13.6 78.9 15.3 78.5 16.1C77.9 17 77.3 16.8 76.3 15.4C74.9 13.5 74.8 13.5 75.2 15.5C75.4 16.7 76.3 17.5 77.5 17.5C80.4 17.5 80.7 12.9 78 10.5C76.9 9.5 76 8.1 76 7.3C76 5.6 78.7 5.6 79.3 7.2C79.6 8 79.9 7.8 79.9 6.7C80 5.5 79.2 5 77.5 5C75.7 5 75 5.5 75 7Z" fill="white"/>
<path d="M82.4 10.9999C82.5 16.8999 82.7 17.4999 84.8 17.7999C86.9 18.0999 87 17.8999 86.8 11.2999L86.6 4.49985L86.3 10.6999C85.7 20.0999 83.6 18.7999 82.7 8.49985C82.5 6.29985 82.3 7.39985 82.4 10.9999Z" fill="white"/>
<path d="M89 11.5002C89 17.6002 89.1 18.0002 91.3 17.9002C92.5 17.9002 92.9 17.6002 92.3 17.3002C91.4 17.0002 91 14.7002 91 10.9002C91 7.60022 90.6 5.00023 90 5.00023C89.4 5.00023 89 7.80023 89 11.5002Z" fill="white"/>
<path d="M57.5 15.2002C58.6 15.8002 59.6 16.4002 59.8 16.6002C60 16.7002 59.7 17.8002 59 18.9002C57.6 21.5002 59.1 21.6002 61.5 19.0002C64 16.3002 62.8 14.0002 58.8 14.0002C55.8 14.1002 55.7 14.2002 57.5 15.2002Z" fill="white"/>
<path d="M99.2 14.8C98.2 15.5 98.4 16.3 100 18.3C101.2 19.8 102.7 21 103.3 21C104.1 21 104 20.6 103.2 19.8C101.4 18 101.7 16.4 104.3 15.2C106.4 14.2 106.4 14.1 103.5 14.1C101.9 14.1 99.9 14.4 99.2 14.8Z" fill="white"/>
<path d="M50.8 18.6998C52.9 20.1998 53 20.3998 51.4 22.0998C49.1 24.6998 51.4 24.5998 54 21.9998C56.6 19.3998 56.5 18.3998 53.8 17.5998C49.6 16.4998 48.3 16.9998 50.8 18.6998Z" fill="white"/>
<path d="M107.3 17.6998C105.4 18.3998 105.7 20.3998 108 22.4998C110.2 24.4998 112.2 23.7998 110.2 21.7998C109.2 20.7998 109.4 20.1998 111.2 18.7998L113.5 16.9998L111 17.0998C109.6 17.0998 107.9 17.3998 107.3 17.6998Z" fill="white"/>
<path d="M42 19.4998C42 19.8998 42.7 20.7998 43.5 21.6998C44.9 23.0998 44.9 23.3998 43.3 25.2998C41.5 27.2998 41.5 27.2998 44 25.9998C47.4 24.1998 49.2 21.6998 47.7 20.8998C45.5 19.6998 42 18.8998 42 19.4998Z" fill="white"/>
<path d="M115.7 20.2997C113.1 21.3997 113 21.5997 114.4 23.5997C115.3 24.7997 116.9 25.9997 118.1 26.2997C120 26.7997 120.1 26.6997 118.6 25.0997C116.6 22.8997 116.6 21.9997 118.8 20.3997C120.9 18.6997 119.4 18.6997 115.7 20.2997Z" fill="white"/>
<path d="M35.5 23.3997C37.2 24.5997 37.2 24.9997 36.1 26.3997C33.7 29.2997 35.8 29.2997 38.6 26.4997C41.6 23.4997 40.7 21.9997 36.1 21.9997C33.7 21.9997 33.7 22.0997 35.5 23.3997Z" fill="white"/>
<path d="M122.1 22.8998C120.9 23.6998 120.8 24.0998 122 25.4998C122.7 26.3998 124.3 27.5998 125.4 28.1998C127.5 29.2998 127.5 29.2998 125.6 27.0998C123.5 24.7998 123.5 24.7998 126.5 23.1998C128.4 22.0998 128.4 22.0998 126 21.9998C124.6 21.9998 122.9 22.3998 122.1 22.8998Z" fill="white"/>
<path d="M28.5 24.3997C30.4 25.7997 30.4 25.8997 28.6 27.8997C26 30.7997 28.6 30.6997 31.7 27.7997C33.8 25.7997 33.8 25.5997 32.2 24.3997C31.3 23.6997 29.6 22.9997 28.6 22.9997C26.6 22.9997 26.6 22.9997 28.5 24.3997Z" fill="white"/>
<path d="M66.5 26.6C61 28.5 49.3 31.6 40.5 33.6C31.7 35.6 22.3 37.7 19.5 38.4L14.5 39.5L14.2 55.1C14.1 63.6 14.3 72.3 14.8 74.5L15.6 78.3L40.5 89.9L65.5 101.6L65.8 130.8L66 160.1L62.9 158.3C57.5 155.2 44.7 140.7 40.1 132.5C35.4 124.3 29.7 108.7 28.5 101C27.9 96.8 27.5 96.3 22.1 93.3L16.3 90.1L17.2 95.6C22.7 130.5 34.7 152.6 57 168.7C63.5 173.3 76 181 77.2 181C77.7 181 77.9 161.4 77.8 137.4L77.5 93.9L51 81.1L24.5 68.3L24.2 59.3L23.9 50.4L33 49.1C38 48.4 47.1 46.5 53.2 44.9C59.3 43.3 64.4 42 64.6 42C64.8 42 65 49.4 65 58.4V74.7L70.9 77.4C74.1 78.8 77 80 77.4 80C77.7 80 78 67.2 78 51.5C78 35.8 77.7 23.1 77.3 23.1C76.8 23.2 72 24.8 66.5 26.6Z" fill="white"/>
<path d="M83 102.6V182L86.8 180.5C93.9 177.5 105.5 169.6 112.7 162.7C121.4 154.4 128 144.8 133.1 133.1C136.2 125.9 141 111 141 108.7C141 108.3 138.5 106.8 135.4 105.2L129.8 102.4L134.5 98.6C140.8 93.4 145.6 85.9 147.6 78C148.9 72.8 149.1 69.1 148.6 60C147.9 48.5 146.8 40.5 145.7 39.3C145.3 39 135.7 36.8 124.3 34.4C112.9 32 98.9 28.4 93.3 26.6L83 23.1V102.6ZM106 42.4C111.5 43.8 121 45.7 126.9 46.6L137.8 48.4L138.4 51.9C139.3 57.4 139.1 67.1 138 73C136.6 80.3 133.3 86.4 128.3 91.1C121.1 97.7 120.5 97.8 110.5 93.1C105.7 90.8 101.6 89 101.4 89C101.2 89 101 91.9 101 95.4V101.7L113.6 107.5C120.5 110.8 126.4 113.8 126.6 114.2C128.5 117.2 118 139.9 110.7 148.8C106.5 153.9 96.8 162 94.9 162C94.4 162 94 136.5 94 101C94 63.8 94.4 40 94.9 40C95.5 40 100.4 41.1 106 42.4Z" fill="white"/>
<path d="M129.5 24.3C127.8 25.6 127.8 25.8 129.8 27.8C131 29 132.7 30 133.5 30C134.6 30 134.5 29.5 132.9 27.9C130.9 25.9 130.9 25.8 132.7 24.5C134.2 23.3 134.2 23.1 132.9 23C132.1 23 130.6 23.6 129.5 24.3Z" fill="white"/>
<path d="M21.7 25.2002C22.9 27.2002 22.7 28.4002 21 29.7002C18.6 31.7002 22 31.4002 24.8 29.4002C27 27.9002 27 27.7002 25.4 25.9002C23.5 23.8002 20.4 23.2002 21.7 25.2002Z" fill="white"/>
<path d="M136.6 25.5C134.7 26.9 134.7 27 136.5 29C137.5 30.1 139.3 31 140.4 31C142.3 30.9 142.4 30.9 140.7 29.9C139.8 29.3 139.2 28.5 139.5 27.9C139.9 27.4 139.6 27 138.9 27C138.2 27 138.5 26.3 139.6 25.5C141 24.4 141.1 24.1 140 24.1C139.2 24.1 137.6 24.7 136.6 25.5Z" fill="white"/>
<path d="M15.3 28.1998C17.4 28.8998 18.5 28.8998 19.3 28.0998C20.1 27.2998 19.3 26.9998 16.5 27.0998C12.5 27.1998 12.5 27.1998 15.3 28.1998Z" fill="white"/>
<path d="M142.8 28.1998C143.6 28.9998 144.5 28.9998 146.2 28.1998C148.4 27.1998 148.3 27.0998 145.1 27.0998C142.4 26.9998 141.9 27.2998 142.8 28.1998Z" fill="white"/>
<path d="M16 193.5C14.5 195.3 15.4 198.1 18.6 201.9C20 203.6 20.8 205.5 20.4 206.4C19.6 208.6 17.9 208.4 17.3 206C16.8 204 15 203.2 15 204.9C15 207.5 16.5 209 19 209C21.7 209 23 207.5 23 204.6C23 203.9 21.6 201.6 20 199.5C17.8 196.7 17.2 195.4 18 194.6C18.8 193.8 19.5 194 20.4 195.2C22 197.4 23.3 196.3 21.9 193.9C20.7 191.6 17.7 191.4 16 193.5Z" fill="white"/>
<path d="M51 193C51 193.5 51.5 194 52 194C52.6 194 53 193.5 53 193C53 192.4 52.6 192 52 192C51.5 192 51 192.4 51 193Z" fill="white"/>
<path d="M64 200.5C64 205.5 64.4 209 65 209C65.6 209 66 205.5 66 200.5C66 195.5 65.6 192 65 192C64.4 192 64 195.5 64 200.5Z" fill="white"/>
<path d="M68 193C68 193.5 68.5 194 69 194C69.6 194 70 193.5 70 193C70 192.4 69.6 192 69 192C68.5 192 68 192.4 68 193Z" fill="white"/>
<path d="M93 193.9C93 195.3 92.4 195.6 90.5 195.2C88 194.8 88 194.8 88 201.9V209H91.5H95V200.5C95 195.5 94.6 192 94 192C93.5 192 93 192.8 93 193.9ZM92.8 202.2C92.4 209.6 90 209.9 90 202.6C90 198.2 90.3 197 91.6 197C92.8 197 93 198 92.8 202.2Z" fill="white"/>
<path d="M100 200.6V209.1L103.3 208.8L106.5 208.5L106.7 201.5C106.8 193.9 106 192 102.4 192C100.1 192 100 192.2 100 200.6ZM104.5 197C104.5 198.3 103.9 199.5 103.3 199.7C102.4 200 102 199.1 102 197C102 194.9 102.4 194 103.3 194.2C103.9 194.5 104.5 195.7 104.5 197ZM104.5 204.3C104.5 208.2 102.6 208.1 102.2 204.1C101.9 201.7 102.2 200.9 103.2 201.2C103.9 201.5 104.5 202.9 104.5 204.3Z" fill="white"/>
<path d="M141 200.5C141 205.5 141.4 209 142 209C142.6 209 143 206.3 143 203C143 198.3 143.3 197 144.5 197C145.7 197 146 198.3 146 203C146 206.5 146.4 209 147 209C147.7 209 148 206.5 147.8 202.2C147.5 196 147.3 195.5 145.3 195.6C143.7 195.6 143 195.1 143 193.8C143 192.8 142.6 192 142 192C141.4 192 141 195.5 141 200.5Z" fill="white"/>
<path d="M24.4 196.5C23.4 198.9 24.6 211.4 25.8 211.8C26.5 212 27 211.5 27 210.6C27 209.7 27.8 209 28.9 209C29.9 209 31.1 208.3 31.4 207.4C32.2 205.2 32.1 197.7 31.2 196.4C30.2 194.8 25 194.9 24.4 196.5ZM29.5 202.5C29.5 205.5 29 207.5 28.3 207.8C27.3 208.1 27 206.6 27 202.5C27 198.4 27.3 196.9 28.3 197.2C29 197.5 29.5 199.5 29.5 202.5Z" fill="white"/>
<path d="M34 196.9C32.8 199.2 32.7 206 33.8 207.6C34.8 209.1 37.5 209.9 38.7 209.2C40.2 208.2 41.3 204 40.1 204C39.6 204 38.8 204.9 38.5 206C37.5 209 36 208.4 36 205C36 202.5 36.4 202 38.5 202C40.1 202 41 201.4 41 200.4C41 197.7 39 195 37 195C35.9 195 34.6 195.9 34 196.9ZM38.6 198.1C39.4 199.5 37.5 201.4 36.1 200.6C35 199.9 35.7 197 37 197C37.5 197 38.2 197.5 38.6 198.1Z" fill="white"/>
<path d="M43.1 196.9C41.9 199.1 41.6 204.9 42.6 207.4C43 208.4 44.4 209 46.1 209C48.6 209 49 208.6 48.9 206.2C48.9 203.5 48.9 203.5 47.9 205.8C46.5 209.4 44.5 207.9 44.2 203C43.8 197.8 45.5 195.6 47.6 198.5C49.1 200.4 49.1 200.4 48.8 198C48.4 194.8 44.6 194 43.1 196.9Z" fill="white"/>
<path d="M51 202C51 206 51.4 209 52 209C52.6 209 53 206 53 202C53 198 52.6 195 52 195C51.4 195 51 198 51 202Z" fill="white"/>
<path d="M55.6 196.6C55.2 197.6 55.4 198.8 56 199.4C56.7 200.1 57 199.9 57 198.7C57 197.8 57.7 197 58.5 197C60.8 197 60.3 199.6 57.5 201.4C55.8 202.5 55 204 55 205.9C55 209.1 56.2 209.9 59.8 209.2C62 208.8 62.1 208.4 61.8 202.1C61.5 195.8 61.4 195.5 58.9 195.2C57.1 195 56 195.5 55.6 196.6ZM59.6 206.6C59.3 207.4 58.6 207.8 58 207.5C56.6 206.6 56.8 203.3 58.3 202.7C59.7 202.2 60.4 204.4 59.6 206.6Z" fill="white"/>
<path d="M68 202C68 206 68.4 209 69 209C69.6 209 70 206 70 202C70 198 69.6 195 69 195C68.4 195 68 198 68 202Z" fill="white"/>
<path d="M72 196C72 196.5 72.7 197 73.5 197C75.3 197 75.3 197 73.6 201.1C70.5 208.7 70.5 209 74.2 208.9C76 208.8 76.7 208.6 75.8 208.3C73.6 207.8 73.6 206.3 75.5 201.7C77.7 196.5 77.4 195 74.5 195C73.1 195 72 195.4 72 196Z" fill="white"/>
<path d="M79.7 195.7C79.3 196 79 198.9 79 202.1C79 206.8 79.4 208.1 80.9 209C83.1 210.1 86 208.1 86 205.4C86 203.3 84.3 203.7 83.7 206C82.9 209.1 81 208.4 81 205C81 202.5 81.4 202 83.5 202C86.1 202 86.7 200.1 85.4 196.6C84.8 195 80.9 194.4 79.7 195.7ZM83.8 198.7C83.3 201.2 81 201.5 81 199.1C81 197.9 81.6 197 82.6 197C83.5 197 84 197.7 83.8 198.7Z" fill="white"/>
<path d="M109 202.1C109 206 109.4 209 110 209C110.6 209 111 206.5 111 203.5C111 200.5 111.5 198 112 198C113.9 198 113 195.4 111 195.3C109.2 195.1 109 195.7 109 202.1Z" fill="white"/>
<path d="M115.7 195.6C115.3 196 115 197.3 115 198.4C115.1 200.3 115.2 200.3 116.1 198.7C117.3 196.7 119 196.4 119 198.4C119 199.1 117.9 200.5 116.5 201.4C112.1 204.3 113.7 210.2 118.6 209.2C121 208.8 121.1 208.5 120.8 202.1C120.5 196.3 120.2 195.5 118.5 195.2C117.3 195 116.1 195.2 115.7 195.6ZM119 205C119 208.1 117.4 209.1 116.4 206.5C115.9 205.2 117.5 202 118.6 202C118.8 202 119 203.3 119 205Z" fill="white"/>
<path d="M123 202.2C123 206.1 123.4 209 124 209C124.6 209 125 206.3 125 203C125 198.3 125.3 197 126.5 197C127.7 197 128 198.3 128 203C128 206.3 128.4 209 129 209C129.6 209 130 206 130 202V195.1L126.5 195.2L123 195.3V202.2Z" fill="white"/>
<path d="M132.6 196.5C132.3 197.4 132 200.4 132 203C132 208.4 134 210.7 137.3 208.9C139.1 207.8 139.7 204 138 204C137.5 204 137 204.9 137 206.1C137 207.3 136.5 208 135.8 207.8C134.1 207.2 133.4 197 135.1 197C135.7 197 136.9 197.8 137.7 198.7C138.9 200.4 139 200.3 138.8 198C138.6 196.1 137.8 195.4 135.9 195.2C134.2 195 133 195.5 132.6 196.5Z" fill="white"/>
</svg>
