<?xml version="1.0" standalone="no"?>
<!DOCTYPE svg PUBLIC "-//W3C//DTD SVG 20010904//EN"
 "http://www.w3.org/TR/2001/REC-SVG-20010904/DTD/svg10.dtd">
<svg version="1.0" xmlns="http://www.w3.org/2000/svg"
 width="64.000000pt" height="64.000000pt" viewBox="0 0 64.000000 64.000000"
 preserveAspectRatio="xMidYMid meet">

<g transform="translate(0.000000,64.000000) scale(0.100000,-0.100000)"
fill="#fff" stroke="none">
<path d="M117 634 c-4 -4 -22 -7 -41 -6 -45 2 -62 -20 -70 -90 -8 -67 3 -94
62 -151 41 -40 67 -45 86 -15 8 13 5 24 -12 48 -20 27 -21 33 -9 50 36 52 118
90 193 90 41 0 43 -2 33 -19 -28 -44 17 -75 62 -42 26 19 32 20 49 8 26 -18
57 -59 70 -91 13 -34 19 -33 60 9 25 26 33 43 32 67 0 18 -1 49 -2 69 -1 48
-23 65 -92 73 -60 8 -84 0 -125 -37 -18 -16 -37 -20 -95 -21 -67 -1 -76 1
-103 26 -31 28 -84 46 -98 32z m71 -34 c17 -11 32 -24 32 -29 0 -19 -20 -22
-44 -6 -14 9 -29 14 -34 11 -5 -3 -17 3 -26 13 -13 15 -14 20 -4 24 25 10 43
7 76 -13z m342 15 c0 -17 -26 -42 -39 -38 -9 2 -33 -13 -56 -36 -21 -23 -45
-41 -52 -41 -26 0 -12 28 37 74 36 34 57 46 80 46 16 0 30 -2 30 -5z m80 -34
c0 -24 -35 -55 -55 -47 -27 10 -29 36 -5 61 18 19 27 22 41 14 11 -5 19 -18
19 -28z m-515 9 c36 -40 -10 -77 -50 -40 -19 18 -22 27 -14 41 13 25 41 24 64
-1z m70 -51 c0 -7 -10 -18 -22 -25 -13 -6 -21 -13 -18 -16 3 -3 -2 -11 -10
-18 -12 -10 -19 -10 -27 -2 -9 9 -4 21 22 47 34 35 55 41 55 14z m365 -14 c26
-27 31 -38 22 -47 -13 -13 -42 6 -42 29 0 8 -4 12 -9 9 -12 -8 -34 21 -26 34
10 16 19 12 55 -25z m86 -39 c-9 -38 -43 -73 -56 -60 -9 9 -8 18 5 38 10 15
15 29 11 33 -3 4 2 15 11 25 15 17 18 17 26 3 5 -9 6 -27 3 -39z m-567 32 c10
-6 16 -18 14 -27 -2 -9 13 -33 36 -56 23 -21 41 -45 41 -52 0 -26 -28 -12 -74
37 -34 36 -46 57 -46 80 0 33 2 35 29 18z"/>
<path d="M388 442 l-41 -39 28 -36 c15 -21 33 -37 39 -37 16 0 86 59 86 73 0
12 -56 77 -66 77 -3 0 -23 -17 -46 -38z m63 -66 l-31 -31 -26 27 -27 26 34 31
34 31 23 -27 24 -26 -31 -31z"/>
<path d="M560 316 c0 -43 -1 -45 -19 -35 -44 28 -75 -17 -42 -62 19 -26 20
-33 9 -47 -46 -58 -118 -92 -195 -92 -40 0 -42 2 -32 19 28 44 -17 75 -62 42
-26 -19 -32 -20 -49 -8 -49 34 -90 118 -90 183 0 19 -5 34 -11 34 -8 0 -10
-17 -6 -52 5 -49 3 -56 -26 -85 -22 -24 -30 -41 -29 -65 0 -18 1 -49 2 -69 0
-21 8 -43 18 -52 21 -19 142 -34 142 -18 0 6 -13 11 -30 11 -33 0 -35 2 -18
29 6 10 18 16 27 14 9 -2 33 13 56 36 39 41 65 52 65 29 0 -7 -19 -31 -42 -55
-43 -44 -46 -74 -3 -33 20 19 36 23 97 24 68 2 75 0 105 -28 23 -21 42 -29 65
-28 18 0 49 1 69 2 48 1 65 23 73 92 8 61 -4 97 -41 131 -16 14 -19 27 -15 66
2 30 0 51 -7 55 -7 5 -11 -7 -11 -38z m14 -96 c34 -36 46 -57 46 -80 0 -33 -2
-35 -29 -18 -10 6 -16 18 -14 27 2 9 -13 33 -36 56 -23 21 -41 45 -41 52 0 26
28 12 74 -37z m-489 -10 c3 -5 -1 -21 -10 -34 -9 -14 -14 -29 -11 -34 3 -5 -3
-17 -13 -26 -17 -15 -19 -16 -25 -1 -10 26 -7 38 14 73 20 33 34 40 45 22z
m41 -68 c6 -12 13 -20 16 -17 3 3 11 -2 18 -10 10 -12 10 -19 1 -28 -9 -9 -20
-3 -47 25 -21 21 -33 41 -29 47 10 16 28 9 41 -17z m430 17 c3 -6 -10 -27 -30
-47 -27 -28 -38 -34 -47 -25 -15 15 5 43 29 43 8 0 12 3 9 7 -8 7 11 33 24 33
4 0 11 -5 15 -11z m-452 -71 c13 -22 -19 -60 -48 -56 -27 4 -32 35 -10 59 20
23 42 21 58 -3z m492 1 c42 -40 -5 -81 -48 -42 -21 19 -23 34 -6 51 17 17 28
15 54 -9z m-131 -15 c13 -9 28 -13 33 -10 5 3 17 -3 27 -14 17 -18 16 -19 -8
-25 -39 -10 -107 30 -92 55 8 13 11 13 40 -6z"/>
<path d="M165 260 l-29 -30 36 -37 36 -36 31 22 c38 27 38 35 5 78 -31 41 -42
41 -79 3z m55 -8 c0 -13 -41 -33 -52 -26 -7 4 -2 13 13 25 22 16 39 17 39 1z
m13 -53 c-30 -31 -51 -14 -22 17 16 17 26 21 33 14 7 -7 4 -17 -11 -31z"/>
</g>
</svg>
