<?xml version="1.0" standalone="no"?>
<!DOCTYPE svg PUBLIC "-//W3C//DTD SVG 20010904//EN"
 "http://www.w3.org/TR/2001/REC-SVG-20010904/DTD/svg10.dtd">
<svg version="1.0" xmlns="http://www.w3.org/2000/svg"
 width="64.000000pt" height="64.000000pt" viewBox="0 0 64.000000 64.000000"
 preserveAspectRatio="xMidYMid meet">

<g transform="translate(0.000000,64.000000) scale(0.100000,-0.100000)"
fill="#fff" stroke="none">
<path d="M280 625 c0 -20 -36 -38 -61 -30 -24 8 -69 -29 -69 -56 0 -9 -10 -19
-23 -23 -23 -5 -47 -42 -47 -72 0 -8 7 -28 15 -44 19 -36 4 -48 -30 -26 -13 9
-34 16 -45 16 -20 0 -21 -5 -18 -107 l3 -106 54 -18 c29 -10 58 -16 63 -13 6
4 31 -16 57 -42 73 -76 94 -91 126 -98 26 -6 37 0 88 49 31 30 57 58 57 63 0
4 43 29 95 55 l95 47 0 75 0 74 -52 -2 c-56 -2 -56 -1 -37 49 15 37 -3 83 -39
99 -12 5 -22 17 -22 26 0 8 -13 27 -28 42 -21 21 -31 24 -40 15 -15 -15 -62 5
-62 27 0 11 -11 15 -40 15 -28 0 -40 -4 -40 -15z m67 -23 c5 -22 55 -42 75
-31 10 6 21 2 32 -9 14 -16 14 -21 2 -38 -13 -18 -15 -18 -33 -2 -31 29 -93
50 -124 43 -15 -4 -45 -18 -66 -32 -35 -24 -38 -24 -50 -7 -11 15 -10 21 3 36
11 11 22 15 32 9 20 -11 70 9 75 31 3 10 14 18 27 18 13 0 24 -8 27 -18z m18
-66 c39 -17 58 -46 49 -80 -3 -14 1 -37 11 -55 14 -28 14 -32 0 -37 -8 -4 -27
-3 -41 0 -24 6 -25 8 -10 25 22 24 20 83 -2 112 -43 52 -122 15 -122 -59 0
-19 7 -43 16 -53 15 -17 14 -19 -10 -25 -14 -3 -33 -4 -41 0 -14 5 -14 9 0 37
10 18 14 41 11 55 -9 33 9 63 47 79 41 18 50 18 92 1z m-163 -71 c8 -18 7 -31
-6 -56 -20 -39 -20 -59 -2 -59 9 0 12 -8 8 -25 -2 -14 -11 -25 -18 -25 -20 0
-60 42 -56 58 2 8 -4 29 -13 48 -19 41 -11 82 19 94 26 10 54 -4 68 -35z m330
0 c8 -18 7 -31 -6 -56 -21 -43 -20 -55 7 -63 20 -6 18 -9 -23 -31 -59 -31 -67
-31 -72 5 -3 20 0 30 9 30 17 0 17 20 -2 58 -19 37 -11 76 18 90 27 12 54 -1
69 -33z m-174 23 c17 -17 15 -73 -3 -88 -27 -23 -18 -46 25 -59 35 -10 40 -16
40 -41 0 -17 -2 -30 -5 -30 -3 0 -38 9 -77 20 -40 11 -83 20 -95 20 -37 0 -27
18 17 31 43 13 52 36 25 59 -18 15 -20 71 -3 88 7 7 24 12 38 12 14 0 31 -5
38 -12z m-291 -139 c27 -17 33 -26 29 -43 -3 -11 -11 -45 -17 -74 -9 -39 -16
-51 -27 -47 -7 3 -18 5 -23 5 -5 0 -9 40 -9 90 0 50 3 90 6 90 4 0 22 -10 41
-21z m553 -57 l0 -58 -86 -42 -86 -43 -35 28 c-19 15 -45 36 -57 46 -22 18
-25 18 -54 3 -35 -18 -52 -20 -52 -6 0 5 18 19 39 30 35 18 46 19 89 9 49 -12
50 -12 143 39 52 28 95 52 97 52 1 0 2 -26 2 -58z m-480 6 c0 -27 -33 -128
-43 -128 -10 0 -6 30 14 102 9 35 29 53 29 26z m143 -15 c4 -3 -7 -15 -24 -25
-22 -13 -29 -25 -27 -41 4 -28 38 -34 71 -12 23 15 26 14 75 -27 29 -23 52
-48 52 -55 0 -16 -14 -10 -47 20 -34 31 -41 11 -8 -23 37 -39 25 -50 -16 -16
-40 34 -51 25 -16 -12 15 -16 27 -31 27 -35 0 -17 -21 -3 -85 58 -70 68 -82
73 -115 53 -32 -20 -42 0 -27 52 11 38 19 47 47 57 39 13 83 16 93 6z m-78
-143 c-20 -22 -31 -20 -22 5 4 8 14 15 23 15 16 0 16 -2 -1 -20z m30 -30 c-20
-22 -31 -20 -22 5 4 8 14 15 23 15 16 0 16 -2 -1 -20z m45 -19 c0 -12 -29 -35
-36 -28 -11 10 5 37 21 37 8 0 15 -4 15 -9z m30 -30 c0 -13 -29 -35 -37 -28
-7 8 15 37 28 37 5 0 9 -4 9 -9z m30 -31 c0 -5 -4 -10 -10 -10 -5 0 -10 5 -10
10 0 6 5 10 10 10 6 0 10 -4 10 -10z"/>
</g>
</svg>
