<?xml version="1.0" standalone="no"?>
<!DOCTYPE svg PUBLIC "-//W3C//DTD SVG 20010904//EN"
 "http://www.w3.org/TR/2001/REC-SVG-20010904/DTD/svg10.dtd">
<svg version="1.0" xmlns="http://www.w3.org/2000/svg"
 width="64.000000pt" height="64.000000pt" viewBox="0 0 64.000000 64.000000"
 preserveAspectRatio="xMidYMid meet">

<g transform="translate(0.000000,64.000000) scale(0.100000,-0.100000)"
fill="#fff" stroke="none">
<path d="M310 536 l0 -74 -76 -42 c-44 -24 -78 -50 -81 -61 -5 -17 -15 -19
-79 -19 l-74 0 0 -155 0 -155 320 0 320 0 0 155 0 155 -74 0 c-64 0 -74 2 -79
19 -3 11 -37 37 -81 61 -62 34 -76 46 -76 66 0 15 6 24 15 24 8 0 15 -7 15
-15 0 -11 13 -15 54 -15 l54 0 0 40 c1 35 -2 40 -23 40 -12 0 -25 7 -29 15 -3
10 -19 15 -46 15 -22 0 -40 5 -40 10 0 6 -4 10 -10 10 -6 0 -10 -31 -10 -74z
m90 9 c0 -10 -11 -15 -35 -15 -24 0 -35 5 -35 15 0 10 11 15 35 15 24 0 35 -5
35 -15z m40 -25 c0 -15 -6 -20 -27 -19 -17 1 -21 3 -10 6 9 2 17 11 17 19 0 8
5 14 10 14 6 0 10 -9 10 -20z m-32 -126 l62 -35 0 -154 0 -155 -30 0 -30 0 0
75 0 75 -90 0 -90 0 0 -75 0 -75 -30 0 -30 0 0 155 0 154 73 41 c39 22 79 37
87 34 8 -3 43 -21 78 -40z m-258 -209 l0 -135 -65 0 -65 0 0 135 0 135 65 0
65 0 0 -135z m470 0 l0 -135 -65 0 -65 0 0 135 0 135 65 0 65 0 0 -135z m-310
-70 l0 -65 -30 0 -30 0 0 65 0 65 30 0 30 0 0 -65z m80 0 l0 -65 -30 0 -30 0
0 65 0 65 30 0 30 0 0 -65z"/>
<path d="M287 389 c-18 -25 -11 -56 14 -64 47 -15 80 25 52 64 -18 27 -48 27
-66 0z m50 -15 c8 -21 -13 -42 -28 -27 -13 13 -5 43 11 43 6 0 13 -7 17 -16z"/>
<path d="M210 280 c0 -5 9 -10 20 -10 11 0 20 5 20 10 0 6 -9 10 -20 10 -11 0
-20 -4 -20 -10z"/>
<path d="M300 280 c0 -5 9 -10 20 -10 11 0 20 5 20 10 0 6 -9 10 -20 10 -11 0
-20 -4 -20 -10z"/>
<path d="M390 280 c0 -5 9 -10 20 -10 11 0 20 5 20 10 0 6 -9 10 -20 10 -11 0
-20 -4 -20 -10z"/>
<path d="M210 230 c0 -5 9 -10 20 -10 11 0 20 5 20 10 0 6 -9 10 -20 10 -11 0
-20 -4 -20 -10z"/>
<path d="M300 230 c0 -5 9 -10 20 -10 11 0 20 5 20 10 0 6 -9 10 -20 10 -11 0
-20 -4 -20 -10z"/>
<path d="M390 230 c0 -5 9 -10 20 -10 11 0 20 5 20 10 0 6 -9 10 -20 10 -11 0
-20 -4 -20 -10z"/>
<path d="M50 270 c0 -11 5 -20 10 -20 6 0 10 9 10 20 0 11 -4 20 -10 20 -5 0
-10 -9 -10 -20z"/>
<path d="M100 270 c0 -11 7 -20 15 -20 8 0 15 9 15 20 0 11 -7 20 -15 20 -8 0
-15 -9 -15 -20z"/>
<path d="M50 185 c0 -14 5 -25 10 -25 6 0 10 11 10 25 0 14 -4 25 -10 25 -5 0
-10 -11 -10 -25z"/>
<path d="M104 196 c-4 -10 -2 -22 4 -28 8 -8 13 -7 18 6 4 10 2 22 -4 28 -8 8
-13 7 -18 -6z"/>
<path d="M50 100 c0 -11 5 -20 10 -20 6 0 10 9 10 20 0 11 -4 20 -10 20 -5 0
-10 -9 -10 -20z"/>
<path d="M100 100 c0 -11 7 -20 15 -20 8 0 15 9 15 20 0 11 -7 20 -15 20 -8 0
-15 -9 -15 -20z"/>
<path d="M510 270 c0 -11 7 -20 15 -20 8 0 15 9 15 20 0 11 -7 20 -15 20 -8 0
-15 -9 -15 -20z"/>
<path d="M570 270 c0 -11 5 -20 10 -20 6 0 10 9 10 20 0 11 -4 20 -10 20 -5 0
-10 -9 -10 -20z"/>
<path d="M514 196 c-4 -10 -2 -22 4 -28 8 -8 13 -7 18 6 4 10 2 22 -4 28 -8 8
-13 7 -18 -6z"/>
<path d="M570 185 c0 -14 5 -25 10 -25 6 0 10 11 10 25 0 14 -4 25 -10 25 -5
0 -10 -11 -10 -25z"/>
<path d="M510 100 c0 -11 7 -20 15 -20 8 0 15 9 15 20 0 11 -7 20 -15 20 -8 0
-15 -9 -15 -20z"/>
<path d="M570 100 c0 -11 5 -20 10 -20 6 0 10 9 10 20 0 11 -4 20 -10 20 -5 0
-10 -9 -10 -20z"/>
</g>
</svg>
