<?xml version="1.0" standalone="no"?>
<!DOCTYPE svg PUBLIC "-//W3C//DTD SVG 20010904//EN"
 "http://www.w3.org/TR/2001/REC-SVG-20010904/DTD/svg10.dtd">
<svg version="1.0" xmlns="http://www.w3.org/2000/svg"
 width="64.000000pt" height="64.000000pt" viewBox="0 0 64.000000 64.000000"
 preserveAspectRatio="xMidYMid meet">

<g transform="translate(0.000000,64.000000) scale(0.100000,-0.100000)"
fill="#fff" stroke="none">
<path d="M17 619 c-15 -9 -17 -31 -17 -232 0 -160 3 -226 12 -235 8 -8 50 -12
125 -12 104 0 113 -2 113 -19 0 -24 -17 -37 -58 -46 -38 -8 -50 -28 -32 -50
18 -22 302 -22 320 0 18 22 6 42 -32 50 -41 9 -58 22 -58 46 0 17 9 19 113 19
75 0 117 4 125 12 9 9 12 75 12 235 0 210 -1 223 -19 233 -26 14 -580 13 -604
-1z m587 -15 c14 -5 16 -31 16 -180 0 -106 -4 -174 -10 -174 -6 0 -11 67 -12
168 l-3 167 -275 0 -275 0 -3 -167 c-1 -101 -6 -168 -12 -168 -16 0 -13 347 3
353 18 8 552 8 571 1z m-26 -196 l3 -158 -261 0 -260 0 0 153 c0 85 3 157 7
161 4 3 119 5 257 4 l251 -3 3 -157z m40 -215 l-3 -28 -295 0 -295 0 -3 28 -3
27 301 0 301 0 -3 -27z m-247 -85 l7 -28 -59 0 c-47 0 -57 3 -54 15 3 8 7 22
10 31 4 11 16 14 47 12 36 -3 43 -7 49 -30z m94 -68 c-8 -13 -282 -13 -290 0
-4 6 47 10 145 10 98 0 149 -4 145 -10z"/>
<path d="M147 544 c-4 -4 -7 -56 -7 -116 l0 -108 129 0 c123 0 129 -1 134 -21
4 -15 11 -20 23 -15 9 3 23 1 31 -6 21 -17 62 24 45 45 -7 8 -9 22 -6 31 5 12
0 19 -14 23 -19 5 -22 14 -24 87 l-3 81 -151 3 c-82 1 -153 -1 -157 -4z m291
-36 c-3 -10 -43 -14 -141 -16 -117 -2 -137 0 -137 13 0 13 21 15 141 15 108 0
140 -3 137 -12z m2 -77 c0 -39 0 -40 -30 -31 -35 10 -44 1 -30 -34 l10 -26
-115 0 -115 0 0 65 0 65 140 0 140 0 0 -39z m7 -67 c13 -4 20 -10 17 -16 -3
-5 0 -16 7 -24 16 -19 4 -31 -15 -15 -8 7 -20 10 -26 6 -5 -3 -10 -3 -10 2 0
4 -3 18 -6 31 -7 23 -2 25 33 16z"/>
<path d="M184 416 c-14 -37 0 -51 51 -51 49 0 50 1 50 30 0 29 -2 30 -48 33
-35 2 -49 -1 -53 -12z m77 -21 c0 -5 -7 -12 -16 -13 -23 -5 -47 6 -40 19 8 13
56 8 56 -6z"/>
<path d="M280 190 c0 -5 18 -10 40 -10 22 0 40 5 40 10 0 6 -18 10 -40 10 -22
0 -40 -4 -40 -10z"/>
</g>
</svg>
